# xmcd
#
# Track frame offsets: 
#        150
#        11570
#        22748
#        37036
#        48989
#        59518
#        72548
#        85652
#        97076
#        107477
#        121669
#        127122
#        137830
#        150411
#        162626
#        173171
#        185018
#        198900
#        209312
#        220126
#        234867
#        248022
#        259970
#        271770
#        283575
#
# Disc length: 3966 seconds
#
# Revision: 0
# Processed by: cddbd v1.5.2PL0 Copyright (c) Steve Scherf et al.
# Submitted via: ExactAudioCopy v1.0b3
#
DISCID=620f7c19
DTITLE=Various Artist - The very best of Bluegrass
DYEAR=2010
DGENRE=Bluegrass
TTITLE0=Bill Monroe And His Bluegrass Boys - Orange Blossom Special
TTITLE1=The Lonesome Pine Fiddlers - Lonesome pine breakdown
TTITLE2=Hayes Sheperd - Hard to love
TTITLE3=Molly O'Day and The Cumberland Mountain Boys - Poor Ellen Smith
TTITLE4=The Bailey Brothers - Happy valley special
TTITLE5=Mac Wiseman - Dreaming of a little cabin
TTITLE6=Delmore Brothers - Rounder's Blues
TTITLE7=Lester Flatt and Earl Scruggs - Your love is like a flower
TTITLE8=Reno and Smiley - I'm gone, long gone
TTITLE9=The Carter Family - Wildwood Flower
TTITLE10=The Stanley Brothers - Cotton Eyed Joe
TTITLE11=Carl Story and His Rambling Mountaineers - He will set your fie
TTITLE11=lds on fire
TTITLE12=Roy Acuff - Wabash Cannonball
TTITLE13=Wilma Lee and Stoney Cooper - Big midnight special
TTITLE14=Jim Eanes and The Shenandoah Valley Boys - Florida Blues
TTITLE15=The Blue Sky Boys - Why should it end this way?
TTITLE16=Jimmie Rodgers - I'm free from the chain gang now
TTITLE17=The Lonesome Pine Fiddlers - Twenty one years
TTITLE18=L.C. Smith, Ralph Mayo and The Southern Mountain Boys - Radio
TTITLE18=Boogie
TTITLE19=The Alabama Barnstormers - Little Bessie
TTITLE20=Mac Wiseman - 'Tis sweet to be remembered
TTITLE21=Bill Monroe And His Bluegrass Boys - Footprints in the snow
TTITLE22=The Stanley Brothers - Wake up sweetheart
TTITLE23=Lester Flatt and Earl Scruggs - Roll in my sweet baby's arms
TTITLE24=Fiddlin' John Carson and Moonshine Kate - When the saints go 
TTITLE24=marching in
EXTD=
EXTT0=
EXTT1=
EXTT2=
EXTT3=
EXTT4=
EXTT5=
EXTT6=
EXTT7=
EXTT8=
EXTT9=
EXTT10=
EXTT11=
EXTT12=
EXTT13=
EXTT14=
EXTT15=
EXTT16=
EXTT17=
EXTT18=
EXTT19=
EXTT20=
EXTT21=
EXTT22=
EXTT23=
EXTT24=
PLAYORDER=
